{"title":"é­šç²¾.Der_Unfisch.DVDRIP-underdyingsun.[Cht.subbed]","uid":10745786,"size":632971776,"categoryP":"video","categoryS":"movies","magnet":"?xt=urn:btih:d24dd2948d399376d0ac7e220855ea02ee38a088&amp;dn=%E9%AD%9A%E7%B2%BE.Der_Unfisch.DVDRIP-underdyingsun.%5BCht.subbed%5D&amp;tr=udp%3A%2F%2Ftracker.openbittorrent.com%3A80&amp;tr=udp%3A%2F%2Fopen.demonii.com%3A1337&amp;tr=udp%3A%2F%2Ftracker.coppersurfer.tk%3A6969&amp;tr=udp%3A%2F%2Fexodus.desync.com%3A6969","seeders":0,"leechers":1,"uploader":"app1985","files":-1,"time":1407813432,"description":" &lt;a href=&quot;http://www.imdb.com/title/tt0114502/&quot; rel=&quot;nofollow&quot; target=&quot;_NEW&quot;&gt;http://www.imdb.com/title/tt0114502/&lt;/a&gt;\n\n\n\nscreens:\n &lt;a href=&quot;\nhttp://bayimg.com/FAPGAAafM&quot; rel=&quot;nofollow&quot; target=&quot;_NEW&quot;&gt;\nhttp://bayimg.com/FAPGAAafM&lt;/a&gt;\n &lt;a href=&quot;\nhttp://bayimg.com/faPGBaaFM&quot; rel=&quot;nofollow&quot; target=&quot;_NEW&quot;&gt;\nhttp://bayimg.com/faPGBaaFM&lt;/a&gt;\n &lt;a href=&quot;\nhttp://bayimg.com/FAPgCaaFM&quot; rel=&quot;nofollow&quot; target=&quot;_NEW&quot;&gt;\nhttp://bayimg.com/FAPgCaaFM&lt;/a&gt;\n\n\n\nGeneral\nComplete name                  : Der_Unfisch.DVDRIP-underdyingsun.avi\nFormat                         : AVI\nFormat/Info                    : Audio Video Interleave\nFile size                      : 604 MiB\nDuration                       : 1h 37mn\nOverall bit rate               : 866 Kbps\n\nVideo\nID                             : 0\nFormat                         : MPEG-4 Visual\nFormat profile                 : Simple@L3\nFormat settings, BVOP          : Yes\nFormat settings, QPel          : No\nFormat settings, GMC           : No warppoints\nFormat settings, Matrix        : Default (H.263)\nCodec ID                       : XVID\nCodec ID/Hint                  : XviD\nDuration                       : 1h 37mn\nBit rate                       : 662 Kbps\nWidth                          : 352 pixels\nHeight                         : 240 pixels\nDisplay aspect ratio           : 3:2\nFrame rate                     : 29.970 fps\nStandard                       : NTSC\nColor space                    : YUV\nChroma subsampling             : 4:2:0\nBit depth                      : 8 bits\nScan type                      : Progressive\nCompression mode               : Lossy\nBits/(Pixel*Frame)             : 0.261\nStream size                    : 462 MiB (76%)\nWriting library                : XviD 1.1.0 Beta1 (UTC 2005-01-16)\n\nAudio\nID                             : 1\nFormat                         : MPEG Audio\nFormat version                 : Version 1\nFormat profile                 : Layer 3\nCodec ID                       : 55\nCodec ID/Hint                  : MP3\nDuration                       : 1h 37mn\nBit rate mode                  : Constant\nBit rate                       : 192 Kbps\nChannel(s)                     : 2 channels\nSampling rate                  : 44.1 KHz\nCompression mode               : Lossy\nDelay relative to video        : 26ms\nStream size                    : 134 MiB (22%)\nAlignment                      : Split accross interleaves\nInterleave, duration           : 33 ms (1.00 video frame)\nTitle                          : Audio Stream\n\n","torrent":{"xt":"urn:btih:d24dd2948d399376d0ac7e220855ea02ee38a088","amp;dn":"%E9%AD%9A%E7%B2%BE.Der_Unfisch.DVDRIP-underdyingsun.%5BCht.subbed%5D","amp;tr":["udp%3A%2F%2Ftracker.openbittorrent.com%3A80","udp%3A%2F%2Fopen.demonii.com%3A1337","udp%3A%2F%2Ftracker.coppersurfer.tk%3A6969","udp%3A%2F%2Fexodus.desync.com%3A6969"],"infoHash":"d24dd2948d399376d0ac7e220855ea02ee38a088","infoHashBuffer":{"type":"Buffer","data":[210,77,210,148,141,57,147,118,208,172,126,34,8,85,234,2,238,56,160,136]},"announce":[],"urlList":[]}}